<svg version="1.1" viewBox="0 0 240 240" xmlns="http://www.w3.org/2000/svg">
 <g>
  <path d="m50.6667 60.6862c-10.0299 2.05284-19.8651 5.9431-28 12.2212-61.5732 47.5193 14.3367 142.071 74.6656 94.4023 4.84009-3.82436 10.7838-9.27667 12.8179-15.3035 1.15113-3.41071-0.28043-8.11468-4.75206-7.00412-5.62944 1.39813-10.2219 10.5318-14.785 14.1101-11.7526 9.21621-26.766 12.7711-41.2798 9.31996-39.2053-9.32234-53.583-60.7092-20.9475-86.6348 44.0153-34.9657 84.903 19.6428 115.614 46.5823 13.6597 11.9821 29.5859 28.1766 49.3333 18.287 31.1559-15.603 13.108-61.4853-20-55.5607-6.53812 1.16999-28.9375 15.5184-19.1965 23.9444 5.07343 4.38855 10.9094-7.82493 13.9887-10.3066 10.8968-8.78211 26.1662-2.87608 30.7016 9.92386 4.38771 12.3831-8.61483 27.3299-21.4938 24.6029-12.0976-2.56158-21.9133-15.1413-30.6667-23.0442-25.2286-22.7774-57.5189-63.416-96-55.5401m118.667 0c-13.1833 2.70247-25.4915 9.14052-34.4156 19.3189-2.26572 2.58418-10.5026 15.1471-1.48765 15.1471 6.00819 0 13.6613-12.7513 18.57-16.2582 13.2457-9.4632 30.2909-10.9771 45.3333-5.25103 42.2227 16.0725 42.3521 74.857 1.33334 92.5442-40.6605 17.5327-76.6508-31.6579-103.233-55.18-8.63965-7.64522-18.0223-18.5706-30.1008-20.0936-6.19591-0.78126-13.0211-0.407552-18.6667 2.41976-4.83246 2.42013-8.90879 6.1259-11.822 10.6718-10.3353 16.1276-1.86949 40.0859 17.1554 44.6183 12.9701 3.08991 33.134-2.42057 35.3961-17.9506 0.498006-3.41896-1.52021-8.12047-5.72325-6.23662-9.23952 4.14125-9.75814 16.2898-23.0062 15.2634-19.7563-1.53076-24.0609-26.9051-7.94753-36.7284 17.5115-10.6757 37.8508 15.9331 49.2809 26.3621 32.3653 29.5309 73.9721 73.4072 118.662 36.7099 45.9238-37.711 9.83321-117.485-49.3282-105.357z" fill="white"/>
 </g>
</svg>
