<svg viewBox="0 0 100 100" xmlns="http://www.w3.org/2000/svg" fill="#000000" preserveAspectRatio="xMidYMid meet">
  <g transform="translate(0,100) scale(0.1,-0.1)" stroke="none">
    <path d="M161 733 c-101 -36 -169 -150 -158 -260 19 -183 231 -283 384 -180 56 38 94 93 70 103 -9 3 -32 -11 -59 -38 -184 -184 -468 62 -311 270 54 72 177 99 255 57 20 -11 92 -69 159 -130 190 -170 196 -175 253 -175 41 0 53 5 82 34 30 30 34 40 34 86 0 46 -4 56 -34 86 -30 30 -40 34 -86 34 -46 0 -56 -4 -86 -34 -19 -19 -34 -41 -34 -49 0 -32 23 -28 52 7 24 30 36 36 67 36 49 0 81 -32 81 -81 0 -71 -77 -103 -136 -57 -16 12 -90 77 -165 144 -75 67 -152 130 -170 139 -46 25 -144 28 -198 8z"/>
    <path d="M667 736 c-50 -18 -104 -60 -122 -97 -14 -27 -14 -30 0 -35 11 -4 27 7 51 34 109 128 335 63 360 -104 14 -98 -51 -204 -142 -232 -100 -30 -139 -12 -303 132 -227 201 -205 186 -262 186 -45 0 -55 -4 -85 -34 -30 -30 -34 -40 -34 -86 0 -46 4 -56 34 -86 50 -50 122 -50 172 0 19 19 34 41 34 49 0 32 -23 28 -52 -7 -24 -30 -36 -36 -67 -36 -49 0 -81 32 -81 81 0 46 34 79 81 79 30 0 55 -19 202 -149 175 -155 217 -181 297 -181 145 0 262 132 247 277 -16 157 -181 262 -330 209z"/>
  </g>
</svg>
